<?xml version="1.0" encoding="UTF-8"?>
<svg xmlns="http://www.w3.org/2000/svg" xmlns:xlink="http://www.w3.org/1999/xlink" width="113px" height="24px" viewBox="0 0 112 24" version="1.1">
<g id="surface1">
<path style=" stroke:none;fill-rule:nonzero;fill:rgb(100%,100%,100%);fill-opacity:1;" d="M 30.65625 19.050781 L 30.65625 7.449219 L 33.089844 7.449219 L 33.089844 12.566406 L 33.242188 12.566406 L 37.378906 7.449219 L 40.296875 7.449219 L 36.027344 12.644531 L 40.347656 19.050781 L 37.4375 19.050781 L 34.285156 14.28125 L 33.089844 15.753906 L 33.089844 19.050781 Z M 41.515625 19.050781 L 41.515625 10.351562 L 43.835938 10.351562 L 43.835938 11.867188 L 43.925781 11.867188 C 44.085938 11.328125 44.347656 10.921875 44.71875 10.644531 C 45.089844 10.367188 45.515625 10.226562 46 10.226562 C 46.121094 10.226562 46.25 10.234375 46.386719 10.25 C 46.527344 10.265625 46.648438 10.285156 46.753906 10.3125 L 46.753906 12.453125 C 46.640625 12.417969 46.484375 12.386719 46.285156 12.363281 C 46.085938 12.335938 45.90625 12.320312 45.742188 12.320312 C 45.390625 12.320312 45.074219 12.398438 44.796875 12.554688 C 44.523438 12.707031 44.308594 12.917969 44.144531 13.1875 C 43.988281 13.460938 43.910156 13.773438 43.910156 14.128906 L 43.910156 19.050781 Z M 49.730469 22.316406 C 49.425781 22.316406 49.140625 22.289062 48.875 22.242188 C 48.613281 22.195312 48.394531 22.136719 48.222656 22.066406 L 48.761719 20.265625 C 49.042969 20.351562 49.296875 20.398438 49.519531 20.40625 C 49.75 20.414062 49.945312 20.359375 50.109375 20.246094 C 50.28125 20.132812 50.417969 19.941406 50.519531 19.667969 L 50.660156 19.300781 L 47.566406 10.351562 L 50.082031 10.351562 L 51.871094 16.742188 L 51.960938 16.742188 L 53.761719 10.351562 L 56.296875 10.351562 L 52.941406 19.992188 C 52.78125 20.460938 52.5625 20.867188 52.285156 21.214844 C 52.011719 21.566406 51.664062 21.835938 51.246094 22.027344 C 50.828125 22.21875 50.320312 22.316406 49.730469 22.316406 Z M 57.519531 22.316406 L 57.519531 10.351562 L 59.878906 10.351562 L 59.878906 11.8125 L 59.984375 11.8125 C 60.089844 11.578125 60.242188 11.339844 60.441406 11.097656 C 60.644531 10.851562 60.90625 10.648438 61.226562 10.488281 C 61.554688 10.320312 61.957031 10.238281 62.441406 10.238281 C 63.070312 10.238281 63.648438 10.402344 64.179688 10.734375 C 64.714844 11.0625 65.136719 11.5625 65.457031 12.226562 C 65.773438 12.886719 65.933594 13.714844 65.933594 14.710938 C 65.933594 15.683594 65.777344 16.503906 65.46875 17.171875 C 65.160156 17.835938 64.742188 18.339844 64.210938 18.683594 C 63.683594 19.023438 63.089844 19.195312 62.433594 19.195312 C 61.96875 19.195312 61.574219 19.117188 61.25 18.960938 C 60.925781 18.804688 60.664062 18.613281 60.457031 18.378906 C 60.25 18.140625 60.09375 17.898438 59.984375 17.660156 L 59.914062 17.660156 L 59.914062 22.316406 Z M 59.863281 14.703125 C 59.863281 15.21875 59.933594 15.671875 60.074219 16.054688 C 60.21875 16.441406 60.425781 16.742188 60.695312 16.957031 C 60.964844 17.167969 61.289062 17.273438 61.675781 17.273438 C 62.066406 17.273438 62.394531 17.164062 62.664062 16.949219 C 62.933594 16.730469 63.140625 16.429688 63.277344 16.042969 C 63.417969 15.65625 63.492188 15.207031 63.492188 14.703125 C 63.492188 14.199219 63.421875 13.757812 63.28125 13.375 C 63.144531 12.996094 62.941406 12.695312 62.671875 12.480469 C 62.402344 12.265625 62.070312 12.15625 61.675781 12.15625 C 61.285156 12.15625 60.957031 12.261719 60.6875 12.46875 C 60.421875 12.675781 60.21875 12.972656 60.074219 13.351562 C 59.933594 13.734375 59.863281 14.183594 59.863281 14.703125 Z M 72.117188 10.351562 L 72.117188 12.164062 L 66.921875 12.164062 L 66.921875 10.351562 Z M 68.101562 8.265625 L 70.496094 8.265625 L 70.496094 16.378906 C 70.496094 16.601562 70.527344 16.773438 70.597656 16.898438 C 70.664062 17.019531 70.757812 17.105469 70.878906 17.152344 C 71 17.203125 71.144531 17.226562 71.304688 17.226562 C 71.417969 17.226562 71.527344 17.21875 71.640625 17.199219 C 71.753906 17.175781 71.839844 17.160156 71.898438 17.148438 L 72.277344 18.945312 C 72.15625 18.980469 71.988281 19.027344 71.769531 19.074219 C 71.554688 19.128906 71.289062 19.160156 70.976562 19.171875 C 70.402344 19.195312 69.894531 19.117188 69.460938 18.9375 C 69.03125 18.761719 68.695312 18.484375 68.457031 18.113281 C 68.214844 17.738281 68.097656 17.265625 68.101562 16.695312 Z M 77.484375 19.222656 C 76.609375 19.222656 75.855469 19.035156 75.21875 18.660156 C 74.585938 18.285156 74.097656 17.757812 73.753906 17.085938 C 73.410156 16.410156 73.234375 15.625 73.234375 14.734375 C 73.234375 13.835938 73.410156 13.050781 73.753906 12.378906 C 74.097656 11.703125 74.585938 11.175781 75.21875 10.804688 C 75.855469 10.425781 76.609375 10.238281 77.484375 10.238281 C 78.355469 10.238281 79.109375 10.425781 79.742188 10.804688 C 80.375 11.175781 80.867188 11.703125 81.210938 12.378906 C 81.558594 13.050781 81.730469 13.835938 81.730469 14.734375 C 81.730469 15.625 81.558594 16.410156 81.210938 17.085938 C 80.867188 17.757812 80.375 18.285156 79.742188 18.660156 C 79.109375 19.035156 78.355469 19.222656 77.484375 19.222656 Z M 77.492188 17.351562 C 77.890625 17.351562 78.222656 17.238281 78.488281 17.011719 C 78.753906 16.78125 78.953125 16.46875 79.089844 16.070312 C 79.226562 15.675781 79.296875 15.222656 79.296875 14.71875 C 79.296875 14.210938 79.226562 13.761719 79.089844 13.363281 C 78.953125 12.96875 78.753906 12.65625 78.488281 12.425781 C 78.222656 12.195312 77.890625 12.078125 77.492188 12.078125 C 77.09375 12.078125 76.757812 12.195312 76.484375 12.425781 C 76.214844 12.65625 76.007812 12.96875 75.871094 13.363281 C 75.734375 13.761719 75.667969 14.210938 75.667969 14.71875 C 75.667969 15.222656 75.734375 15.675781 75.871094 16.070312 C 76.007812 16.46875 76.214844 16.78125 76.484375 17.011719 C 76.757812 17.238281 77.09375 17.351562 77.492188 17.351562 Z M 85.675781 14.019531 L 85.675781 19.050781 L 83.285156 19.050781 L 83.285156 10.351562 L 85.566406 10.351562 L 85.566406 11.886719 L 85.667969 11.886719 C 85.855469 11.378906 86.175781 10.980469 86.628906 10.683594 C 87.074219 10.386719 87.621094 10.238281 88.261719 10.238281 C 88.859375 10.238281 89.382812 10.371094 89.828125 10.632812 C 90.273438 10.898438 90.621094 11.277344 90.867188 11.765625 C 91.113281 12.253906 91.238281 12.835938 91.238281 13.511719 L 91.238281 19.050781 L 88.84375 19.050781 L 88.84375 13.941406 C 88.847656 13.410156 88.714844 12.996094 88.441406 12.695312 C 88.167969 12.394531 87.792969 12.242188 87.3125 12.242188 C 86.992188 12.242188 86.707031 12.3125 86.457031 12.453125 C 86.214844 12.59375 86.023438 12.796875 85.886719 13.0625 C 85.75 13.328125 85.679688 13.648438 85.675781 14.019531 Z M 93.125 19.050781 L 93.125 10.351562 L 95.515625 10.351562 L 95.515625 19.050781 Z M 94.324219 9.230469 C 93.96875 9.230469 93.664062 9.109375 93.410156 8.871094 C 93.160156 8.628906 93.035156 8.339844 93.035156 8.003906 C 93.035156 7.671875 93.160156 7.386719 93.410156 7.148438 C 93.664062 6.90625 93.96875 6.789062 94.324219 6.789062 C 94.683594 6.789062 94.984375 6.90625 95.234375 7.148438 C 95.492188 7.386719 95.617188 7.671875 95.617188 8.003906 C 95.617188 8.339844 95.492188 8.628906 95.234375 8.871094 C 94.984375 9.109375 94.683594 9.230469 94.324219 9.230469 Z M 102.023438 10.351562 L 102.023438 12.164062 L 96.828125 12.164062 L 96.828125 10.351562 Z M 98.007812 8.265625 L 100.398438 8.265625 L 100.398438 16.378906 C 100.398438 16.601562 100.433594 16.773438 100.5 16.898438 C 100.566406 17.019531 100.660156 17.105469 100.78125 17.152344 C 100.90625 17.203125 101.046875 17.226562 101.207031 17.226562 C 101.320312 17.226562 101.433594 17.21875 101.546875 17.199219 C 101.65625 17.175781 101.742188 17.160156 101.804688 17.148438 L 102.179688 18.945312 C 102.058594 18.980469 101.890625 19.027344 101.675781 19.074219 C 101.457031 19.128906 101.195312 19.160156 100.882812 19.171875 C 100.304688 19.195312 99.800781 19.117188 99.367188 18.9375 C 98.933594 18.761719 98.601562 18.484375 98.359375 18.113281 C 98.121094 17.738281 98.003906 17.265625 98.007812 16.695312 Z M 107.421875 19.222656 C 106.535156 19.222656 105.769531 19.039062 105.128906 18.679688 C 104.492188 18.3125 104 17.792969 103.65625 17.125 C 103.3125 16.453125 103.140625 15.660156 103.140625 14.742188 C 103.140625 13.847656 103.3125 13.058594 103.65625 12.382812 C 104 11.707031 104.488281 11.179688 105.113281 10.804688 C 105.742188 10.425781 106.480469 10.238281 107.324219 10.238281 C 107.894531 10.238281 108.425781 10.328125 108.914062 10.515625 C 109.410156 10.695312 109.839844 10.96875 110.207031 11.335938 C 110.578125 11.703125 110.867188 12.164062 111.070312 12.71875 C 111.277344 13.269531 111.378906 13.914062 111.378906 14.65625 L 111.378906 15.320312 L 104.09375 15.320312 L 104.09375 13.824219 L 109.128906 13.824219 C 109.128906 13.476562 109.054688 13.167969 108.902344 12.898438 C 108.753906 12.632812 108.546875 12.421875 108.28125 12.269531 C 108.019531 12.117188 107.710938 12.039062 107.363281 12.039062 C 107 12.039062 106.679688 12.125 106.398438 12.292969 C 106.121094 12.460938 105.902344 12.683594 105.746094 12.96875 C 105.589844 13.246094 105.507812 13.558594 105.503906 13.902344 L 105.503906 15.324219 C 105.503906 15.753906 105.582031 16.128906 105.742188 16.441406 C 105.902344 16.753906 106.128906 16.996094 106.421875 17.164062 C 106.710938 17.335938 107.058594 17.421875 107.460938 17.421875 C 107.726562 17.421875 107.96875 17.382812 108.191406 17.308594 C 108.410156 17.230469 108.601562 17.117188 108.757812 16.96875 C 108.914062 16.816406 109.035156 16.632812 109.117188 16.410156 L 111.328125 16.558594 C 111.21875 17.09375 110.988281 17.5625 110.640625 17.964844 C 110.292969 18.359375 109.847656 18.671875 109.300781 18.894531 C 108.757812 19.113281 108.132812 19.222656 107.421875 19.222656 Z M 107.421875 19.222656 "/>
<path style=" stroke:none;fill-rule:nonzero;fill:rgb(0%,47.058824%,35.686275%);fill-opacity:1;" d="M 23.726562 11.964844 C 23.726562 18.574219 18.414062 23.929688 11.863281 23.929688 C 5.3125 23.929688 0 18.574219 0 11.964844 C 0 5.355469 5.3125 0 11.863281 0 C 18.414062 0 23.726562 5.355469 23.726562 11.964844 Z M 23.726562 11.964844 "/>
<path style="fill-rule:nonzero;fill:rgb(100%,99.215686%,98.039216%);fill-opacity:1;stroke-width:3.19043;stroke-linecap:butt;stroke-linejoin:miter;stroke:rgb(0%,66.666667%,42.745098%);stroke-opacity:1;stroke-miterlimit:10;" d="M 153.157087 19.628906 L 87.412807 85.498047 L 87.462054 217.773438 L 144.982143 284.277344 L 200.286133 248.291016 L 221.412946 118.017578 Z M 153.157087 19.628906 " transform="matrix(0.0793201,0,0,0.08,0,0)"/>
<path style="fill:none;stroke-width:3.19043;stroke-linecap:butt;stroke-linejoin:miter;stroke:rgb(0%,66.666667%,42.745098%);stroke-opacity:1;stroke-miterlimit:10;" d="M 153.157087 19.628906 L 127.253348 97.021484 L 87.462054 217.773438 " transform="matrix(0.0793201,0,0,0.08,0,0)"/>
<path style="fill:none;stroke-width:3.19043;stroke-linecap:butt;stroke-linejoin:miter;stroke:rgb(0%,66.666667%,42.745098%);stroke-opacity:1;stroke-miterlimit:10;" d="M 87.412807 85.498047 L 125.431222 106.982422 L 180.587472 59.228516 " transform="matrix(0.0793201,0,0,0.08,0,0)"/>
<path style="fill:none;stroke-width:3.19043;stroke-linecap:round;stroke-linejoin:round;stroke:rgb(0%,66.666667%,42.745098%);stroke-opacity:1;stroke-miterlimit:4;" d="M 221.412946 118.017578 L 180.685965 261.035156 L 125.431222 106.982422 " transform="matrix(0.0793201,0,0,0.08,0,0)"/>
<path style="fill-rule:nonzero;fill:rgb(0%,66.666667%,42.745098%);fill-opacity:1;stroke-width:3.12787;stroke-linecap:butt;stroke-linejoin:miter;stroke:rgb(100%,99.215686%,98.039216%);stroke-opacity:1;stroke-miterlimit:4;" d="M 178.765346 260.351562 L 147.247489 279.003906 L 149.217355 182.8125 Z M 178.765346 260.351562 " transform="matrix(0.0793201,0,0,0.08,0,0)"/>
<path style="fill-rule:nonzero;fill:rgb(0%,66.666667%,42.745098%);fill-opacity:1;stroke-width:3.12787;stroke-linecap:butt;stroke-linejoin:miter;stroke:rgb(100%,99.215686%,98.039216%);stroke-opacity:1;stroke-miterlimit:4;" d="M 127.154855 106.835938 L 153.206334 24.609375 L 188.466936 75.830078 Z M 127.154855 106.835938 " transform="matrix(0.0793201,0,0,0.08,0,0)"/>
<path style="fill-rule:nonzero;fill:rgb(0%,66.666667%,42.745098%);fill-opacity:1;stroke-width:3.12787;stroke-linecap:butt;stroke-linejoin:miter;stroke:rgb(0%,66.666667%,42.745098%);stroke-opacity:1;stroke-miterlimit:4;" d="M 198.85798 247.314453 L 183.345285 257.470703 L 215.601842 144.140625 Z M 198.85798 247.314453 " transform="matrix(0.0793201,0,0,0.08,0,0)"/>
<path style="fill:none;stroke-width:3.19043;stroke-linecap:round;stroke-linejoin:round;stroke:rgb(0%,66.666667%,42.745098%);stroke-opacity:1;stroke-miterlimit:4;" d="M 184.970424 79.638672 L 183.936244 249.755859 " transform="matrix(0.0793201,0,0,0.08,0,0)"/>
</g>
</svg>
